<svg width="792" height="538" viewBox="0 0 792 538" fill="none" xmlns="http://www.w3.org/2000/svg">
<rect width="791" height="538" transform="translate(0.5)" fill="#001871"/>
<path fill-rule="evenodd" clip-rule="evenodd" d="M219.182 246.756C219.182 228.768 233.763 214.187 251.751 214.187V222.187C238.182 222.187 227.182 233.186 227.182 246.756H219.182ZM296.985 214.187C314.973 214.187 329.554 228.768 329.554 246.756H321.554C321.554 233.186 310.554 222.187 296.985 222.187V214.187ZM251.751 324.559C233.763 324.559 219.182 309.978 219.182 291.99H227.182C227.182 305.559 238.182 316.559 251.751 316.559V324.559ZM329.554 291.99V324.559H296.985V316.559H321.554V291.99H329.554Z" fill="#8FA7FF"/>
<path d="M257.238 269.373C257.238 273.984 253.5 277.722 248.889 277.722C244.278 277.722 240.541 273.984 240.541 269.373C240.541 264.762 244.278 261.024 248.889 261.024C253.5 261.024 257.238 264.762 257.238 269.373Z" fill="#8FA7FF"/>
<path fill-rule="evenodd" clip-rule="evenodd" d="M248.889 276.53C252.842 276.53 256.046 273.326 256.046 269.373C256.046 265.42 252.842 262.216 248.889 262.216C244.937 262.216 241.732 265.42 241.732 269.373C241.732 273.326 244.937 276.53 248.889 276.53ZM248.889 277.722C253.5 277.722 257.238 273.984 257.238 269.373C257.238 264.762 253.5 261.024 248.889 261.024C244.278 261.024 240.541 264.762 240.541 269.373C240.541 273.984 244.278 277.722 248.889 277.722Z" fill="#8FA7FF"/>
<path d="M282.717 269.373C282.717 273.984 278.979 277.722 274.368 277.722C269.757 277.722 266.02 273.984 266.02 269.373C266.02 264.762 269.757 261.024 274.368 261.024C278.979 261.024 282.717 264.762 282.717 269.373Z" fill="#8FA7FF"/>
<path fill-rule="evenodd" clip-rule="evenodd" d="M274.368 276.53C278.321 276.53 281.525 273.326 281.525 269.373C281.525 265.42 278.321 262.216 274.368 262.216C270.416 262.216 267.211 265.42 267.211 269.373C267.211 273.326 270.416 276.53 274.368 276.53ZM274.368 277.722C278.979 277.722 282.717 273.984 282.717 269.373C282.717 264.762 278.979 261.024 274.368 261.024C269.757 261.024 266.02 264.762 266.02 269.373C266.02 273.984 269.757 277.722 274.368 277.722Z" fill="#8FA7FF"/>
<path d="M308.196 269.373C308.196 273.984 304.458 277.722 299.847 277.722C295.236 277.722 291.498 273.984 291.498 269.373C291.498 264.762 295.236 261.024 299.847 261.024C304.458 261.024 308.196 264.762 308.196 269.373Z" fill="#8FA7FF"/>
<path fill-rule="evenodd" clip-rule="evenodd" d="M299.847 276.53C303.8 276.53 307.004 273.326 307.004 269.373C307.004 265.42 303.8 262.216 299.847 262.216C295.894 262.216 292.69 265.42 292.69 269.373C292.69 273.326 295.894 276.53 299.847 276.53ZM299.847 277.722C304.458 277.722 308.196 273.984 308.196 269.373C308.196 264.762 304.458 261.024 299.847 261.024C295.236 261.024 291.498 264.762 291.498 269.373C291.498 273.984 295.236 277.722 299.847 277.722Z" fill="#8FA7FF"/>
<path d="M531.319 309.029H537.204C537.297 309.606 537.567 310.108 538.013 310.536C538.459 310.963 539.054 311.298 539.798 311.54C540.56 311.763 541.453 311.874 542.475 311.874C543.888 311.874 545.004 311.698 545.822 311.344C546.64 310.972 547.049 310.433 547.049 309.727C547.049 309.188 546.817 308.769 546.352 308.472C545.887 308.174 544.995 307.96 543.674 307.83L539.77 307.468C536.888 307.207 534.796 306.557 533.495 305.515C532.193 304.456 531.542 303.033 531.542 301.248C531.542 299.798 531.961 298.571 532.797 297.567C533.653 296.563 534.843 295.81 536.367 295.308C537.911 294.787 539.705 294.527 541.75 294.527C543.758 294.527 545.543 294.815 547.105 295.391C548.667 295.949 549.903 296.749 550.814 297.79C551.744 298.831 552.246 300.04 552.32 301.416H546.463C546.389 300.914 546.147 300.486 545.738 300.133C545.348 299.761 544.809 299.482 544.121 299.296C543.433 299.091 542.605 298.989 541.639 298.989C540.337 298.989 539.305 299.166 538.543 299.519C537.78 299.854 537.399 300.356 537.399 301.025C537.399 301.509 537.622 301.899 538.069 302.197C538.533 302.494 539.361 302.699 540.551 302.81L544.706 303.228C546.696 303.414 548.286 303.74 549.475 304.205C550.665 304.651 551.53 305.274 552.069 306.073C552.608 306.873 552.878 307.867 552.878 309.057C552.878 310.526 552.441 311.809 551.567 312.906C550.693 313.985 549.466 314.831 547.886 315.444C546.305 316.039 544.465 316.337 542.364 316.337C540.207 316.337 538.301 316.039 536.646 315.444C535.01 314.831 533.727 313.975 532.797 312.878C531.868 311.763 531.375 310.48 531.319 309.029Z" fill="#EEF2FF"/>
<path d="M509.044 304.121H516.658C517.587 304.121 518.313 303.907 518.833 303.479C519.354 303.052 519.614 302.457 519.614 301.695C519.614 300.914 519.354 300.319 518.833 299.91C518.313 299.482 517.587 299.268 516.658 299.268H508.235L510.829 296.507V315.89H505.056V294.973H517.467C519.066 294.973 520.46 295.261 521.65 295.838C522.84 296.396 523.77 297.176 524.439 298.18C525.108 299.166 525.443 300.337 525.443 301.695C525.443 303.015 525.108 304.177 524.439 305.181C523.77 306.185 522.84 306.966 521.65 307.523C520.46 308.081 519.066 308.36 517.467 308.36H509.044V304.121ZM512.168 306.101H518.666L526.168 315.89H519.475L512.168 306.101Z" fill="#EEF2FF"/>
<path d="M497.164 303.34V307.523H481.853V303.34H497.164ZM485.785 305.432L484.419 313.827L482.076 311.205H498.085V315.89H478.646L480.235 305.432L478.646 294.973H497.945V299.659H482.076L484.419 297.037L485.785 305.432Z" fill="#EEF2FF"/>
<path d="M460.518 294.973C462.991 294.973 465.157 295.41 467.016 296.284C468.894 297.139 470.344 298.357 471.367 299.938C472.408 301.499 472.929 303.331 472.929 305.432C472.929 307.533 472.408 309.373 471.367 310.954C470.344 312.516 468.894 313.734 467.016 314.607C465.157 315.463 462.991 315.89 460.518 315.89H450.087V294.973H460.518ZM455.832 313.464L453.071 310.759H460.964C462.21 310.759 463.288 310.545 464.199 310.117C465.129 309.671 465.845 309.048 466.347 308.249C466.849 307.449 467.1 306.51 467.1 305.432C467.1 304.335 466.849 303.396 466.347 302.615C465.845 301.815 465.129 301.202 464.199 300.774C463.288 300.328 462.21 300.105 460.964 300.105H453.071L455.832 297.4V313.464Z" fill="#EEF2FF"/>
<path d="M426.754 304.121H434.368C435.298 304.121 436.023 303.907 436.544 303.479C437.064 303.052 437.325 302.457 437.325 301.695C437.325 300.914 437.064 300.319 436.544 299.91C436.023 299.482 435.298 299.268 434.368 299.268H425.946L428.539 296.507V315.89H422.766V294.973H435.177C436.776 294.973 438.17 295.261 439.36 295.838C440.55 296.396 441.48 297.176 442.149 298.18C442.819 299.166 443.153 300.337 443.153 301.695C443.153 303.015 442.819 304.177 442.149 305.181C441.48 306.185 440.55 306.966 439.36 307.523C438.17 308.081 436.776 308.36 435.177 308.36H426.754V304.121ZM429.878 306.101H436.376L443.879 315.89H437.185L429.878 306.101Z" fill="#EEF2FF"/>
<path d="M403.722 316.337C401.249 316.337 399.074 315.881 397.196 314.97C395.336 314.059 393.886 312.785 392.845 311.149C391.822 309.513 391.311 307.607 391.311 305.432C391.311 303.256 391.822 301.351 392.845 299.714C393.886 298.078 395.336 296.805 397.196 295.893C399.074 294.982 401.249 294.527 403.722 294.527C406.213 294.527 408.389 294.982 410.248 295.893C412.107 296.805 413.558 298.078 414.599 299.714C415.64 301.351 416.161 303.256 416.161 305.432C416.161 307.607 415.64 309.513 414.599 311.149C413.558 312.785 412.107 314.059 410.248 314.97C408.389 315.881 406.213 316.337 403.722 316.337ZM403.722 311.177C405.079 311.177 406.251 310.945 407.236 310.48C408.221 310.015 408.974 309.355 409.495 308.5C410.034 307.644 410.304 306.622 410.304 305.432C410.304 304.242 410.034 303.219 409.495 302.364C408.974 301.509 408.221 300.849 407.236 300.384C406.251 299.919 405.079 299.686 403.722 299.686C402.383 299.686 401.221 299.919 400.236 300.384C399.25 300.849 398.488 301.509 397.949 302.364C397.41 303.219 397.14 304.242 397.14 305.432C397.14 306.622 397.41 307.644 397.949 308.5C398.488 309.355 399.25 310.015 400.236 310.48C401.221 310.945 402.383 311.177 403.722 311.177Z" fill="#EEF2FF"/>
<path d="M378.234 305.655L378.708 304.567C380.325 304.604 381.655 304.855 382.696 305.32C383.756 305.766 384.546 306.399 385.067 307.217C385.587 308.016 385.848 308.946 385.848 310.006C385.848 311.14 385.587 312.153 385.067 313.046C384.546 313.92 383.765 314.617 382.724 315.137C381.701 315.639 380.418 315.89 378.875 315.89H363.424L365.042 305.153L363.424 294.973H378.317C380.251 294.973 381.757 295.429 382.836 296.34C383.914 297.232 384.453 298.478 384.453 300.077C384.453 300.951 384.249 301.788 383.84 302.587C383.43 303.387 382.77 304.065 381.859 304.623C380.967 305.162 379.758 305.506 378.234 305.655ZM369.142 314.552L366.911 311.846H377.313C378.15 311.846 378.801 311.642 379.266 311.233C379.73 310.824 379.963 310.257 379.963 309.532C379.963 308.806 379.712 308.23 379.21 307.802C378.708 307.356 377.964 307.133 376.979 307.133H368.389V303.173H376.198C376.867 303.173 377.425 302.977 377.871 302.587C378.336 302.178 378.568 301.629 378.568 300.942C378.568 300.384 378.373 299.928 377.983 299.575C377.592 299.203 377.034 299.017 376.309 299.017H366.938L369.142 296.312L370.564 305.153L369.142 314.552Z" fill="#EEF2FF"/>
<path d="M540.374 261.511H546.175V279.89H540.374V261.511ZM532.398 258.973H554.152V264.105H532.398V258.973Z" fill="#EEF2FF"/>
<path d="M511.204 270.547C511.204 271.496 511.38 272.323 511.734 273.03C512.106 273.717 512.645 274.247 513.351 274.619C514.076 274.991 514.96 275.177 516.001 275.177C517.061 275.177 517.944 274.991 518.65 274.619C519.357 274.247 519.887 273.717 520.24 273.03C520.593 272.323 520.77 271.496 520.77 270.547V258.973H526.571V270.826C526.571 272.741 526.125 274.415 525.232 275.846C524.358 277.259 523.131 278.366 521.551 279.165C519.97 279.946 518.12 280.337 516.001 280.337C513.9 280.337 512.05 279.946 510.451 279.165C508.87 278.366 507.634 277.259 506.741 275.846C505.868 274.415 505.431 272.741 505.431 270.826V258.973H511.204V270.547Z" fill="#EEF2FF"/>
<path d="M486.665 280.337C484.192 280.337 482.017 279.881 480.139 278.97C478.28 278.059 476.83 276.785 475.788 275.149C474.766 273.513 474.254 271.607 474.254 269.432C474.254 267.256 474.766 265.351 475.788 263.714C476.83 262.078 478.28 260.805 480.139 259.893C482.017 258.982 484.192 258.527 486.665 258.527C489.157 258.527 491.332 258.982 493.191 259.893C495.051 260.805 496.501 262.078 497.542 263.714C498.583 265.351 499.104 267.256 499.104 269.432C499.104 271.607 498.583 273.513 497.542 275.149C496.501 276.785 495.051 278.059 493.191 278.97C491.332 279.881 489.157 280.337 486.665 280.337ZM486.665 275.177C488.023 275.177 489.194 274.945 490.179 274.48C491.165 274.015 491.918 273.355 492.438 272.5C492.978 271.644 493.247 270.622 493.247 269.432C493.247 268.242 492.978 267.219 492.438 266.364C491.918 265.509 491.165 264.849 490.179 264.384C489.194 263.919 488.023 263.686 486.665 263.686C485.327 263.686 484.165 263.919 483.179 264.384C482.194 264.849 481.431 265.509 480.892 266.364C480.353 267.219 480.083 268.242 480.083 269.432C480.083 270.622 480.353 271.644 480.892 272.5C481.431 273.355 482.194 274.015 483.179 274.48C484.165 274.945 485.327 275.177 486.665 275.177Z" fill="#EEF2FF"/>
<path d="M445.375 258.973H451.148V279.89H445.375V258.973ZM461.83 258.973H467.631V279.89H461.83V258.973ZM448.61 266.699H464.228V271.83H448.61V266.699Z" fill="#EEF2FF"/>
<path d="M425.48 261.511H431.281V279.89H425.48V261.511ZM417.503 258.973H439.257V264.105H417.503V258.973Z" fill="#EEF2FF"/>
<path d="M405.631 258.973H411.405V279.89H405.631V258.973Z" fill="#EEF2FF"/>
<path d="M390.254 277.436H388.441L393.657 258.973H399.765L393.406 279.89H385.959L379.907 262.041H382.278L376.198 279.89H368.779L362.393 258.973H368.528L373.744 277.436L371.959 277.408L378.039 258.973H384.146L390.254 277.436Z" fill="#EEF2FF"/>
<path d="M428.354 237.029H434.239C434.332 237.606 434.602 238.108 435.048 238.536C435.494 238.963 436.089 239.298 436.833 239.54C437.595 239.763 438.488 239.874 439.51 239.874C440.923 239.874 442.039 239.698 442.857 239.344C443.675 238.972 444.084 238.433 444.084 237.727C444.084 237.188 443.852 236.769 443.387 236.472C442.922 236.174 442.03 235.96 440.71 235.83L436.805 235.468C433.923 235.207 431.831 234.557 430.53 233.515C429.228 232.456 428.578 231.033 428.578 229.248C428.578 227.798 428.996 226.571 429.833 225.567C430.688 224.563 431.878 223.81 433.403 223.308C434.946 222.787 436.74 222.527 438.785 222.527C440.793 222.527 442.578 222.815 444.14 223.391C445.702 223.949 446.938 224.749 447.849 225.79C448.779 226.831 449.281 228.04 449.355 229.416H443.499C443.424 228.914 443.182 228.486 442.773 228.133C442.383 227.761 441.844 227.482 441.156 227.296C440.468 227.091 439.64 226.989 438.674 226.989C437.372 226.989 436.34 227.166 435.578 227.519C434.816 227.854 434.434 228.356 434.434 229.025C434.434 229.509 434.658 229.899 435.104 230.197C435.569 230.494 436.396 230.699 437.586 230.81L441.742 231.228C443.731 231.414 445.321 231.74 446.511 232.205C447.701 232.651 448.565 233.274 449.104 234.073C449.644 234.873 449.913 235.867 449.913 237.057C449.913 238.526 449.476 239.809 448.602 240.906C447.728 241.985 446.501 242.831 444.921 243.444C443.341 244.039 441.5 244.337 439.399 244.337C437.242 244.337 435.336 244.039 433.681 243.444C432.045 242.831 430.762 241.975 429.833 240.878C428.903 239.763 428.41 238.48 428.354 237.029Z" fill="#EEF2FF"/>
<path d="M421.763 222.973V243.89H416.269V225.037L417.496 225.176L409.408 243.89H403.551L395.436 225.232L396.691 225.093V243.89H391.196V222.973H400.121L407.623 240.934H405.392L412.839 222.973H421.763Z" fill="#EEF2FF"/>
<path d="M363.118 237.029H369.002C369.095 237.606 369.365 238.108 369.811 238.536C370.257 238.963 370.852 239.298 371.596 239.54C372.358 239.763 373.251 239.874 374.274 239.874C375.687 239.874 376.802 239.698 377.62 239.344C378.438 238.972 378.847 238.433 378.847 237.727C378.847 237.188 378.615 236.769 378.15 236.472C377.685 236.174 376.793 235.96 375.473 235.83L371.568 235.468C368.686 235.207 366.595 234.557 365.293 233.515C363.992 232.456 363.341 231.033 363.341 229.248C363.341 227.798 363.759 226.571 364.596 225.567C365.451 224.563 366.641 223.81 368.166 223.308C369.709 222.787 371.503 222.527 373.548 222.527C375.556 222.527 377.341 222.815 378.903 223.391C380.465 223.949 381.701 224.749 382.613 225.79C383.542 226.831 384.044 228.04 384.119 229.416H378.262C378.187 228.914 377.946 228.486 377.537 228.133C377.146 227.761 376.607 227.482 375.919 227.296C375.231 227.091 374.404 226.989 373.437 226.989C372.135 226.989 371.103 227.166 370.341 227.519C369.579 227.854 369.198 228.356 369.198 229.025C369.198 229.509 369.421 229.899 369.867 230.197C370.332 230.494 371.159 230.699 372.349 230.81L376.505 231.228C378.494 231.414 380.084 231.74 381.274 232.205C382.464 232.651 383.328 233.274 383.868 234.073C384.407 234.873 384.676 235.867 384.676 237.057C384.676 238.526 384.239 239.809 383.366 240.906C382.492 241.985 381.265 242.831 379.684 243.444C378.104 244.039 376.263 244.337 374.162 244.337C372.005 244.337 370.099 244.039 368.445 243.444C366.808 242.831 365.525 241.975 364.596 240.878C363.666 239.763 363.173 238.48 363.118 237.029Z" fill="#EEF2FF"/>
</svg>
