<svg xmlns="http://www.w3.org/2000/svg" shape-rendering="geometricPrecision" text-rendering="geometricPrecision" image-rendering="optimizeQuality" fill-rule="evenodd" clip-rule="evenodd" viewBox="0 0 512 434.095"><path fill="#464646" d="M192.875 377.302h126.25c.333 21.835 9.335 41.418 33.71 56.793H159.168c19.499-14.126 33.79-31.293 33.707-56.793zM13.916 0h484.168C505.751 0 512 6.251 512 13.918v330.259c0 7.667-6.249 13.918-13.916 13.918H13.916C6.249 358.095 0 351.844 0 344.177V13.918C0 6.251 6.249 0 13.916 0z"/><path fill="#6CC0EF" d="M29.957 19.292h452.128c6.792 0 12.29 5.542 12.29 12.292v261.677c0 6.75-5.54 12.293-12.29 12.293H29.957c-6.748 0-12.291-5.543-12.291-12.293V31.584c-.041-6.783 5.533-12.292 12.291-12.292z"/><path fill="#7BC6F1" d="M29.957 19.292h452.128c6.792 0 12.29 5.542 12.29 12.292V285.4c0 6.75-5.54 12.293-12.29 12.293-152.31-14.997-309.32-128.712-464.419-266.109-.041-6.783 5.533-12.292 12.291-12.292z"/></svg>