<svg xmlns="http://www.w3.org/2000/svg" width="512" height="512" enable-background="new 0 0 512 512" viewBox="0 0 512 512" id="playstore"><path fill="#4771B7" d="M318.981,256l-216.31,229.59c-20.56-2.96-34.2-21.86-34.2-53.01V79.42c0-31.15,13.64-50.05,34.2-53.01
		L318.981,256z"></path><path fill="#E2AB25" d="M412.411,303.82l-30.28,19.2L318.981,256l63.15-67.03l30.28,19.2
		C453.901,234.48,453.901,277.52,412.411,303.82z"></path><path fill="#EA4335" d="M382.131,323.02l-238.23,151.05c-15.19,9.63-29.36,13.23-41.23,11.52L318.981,256L382.131,323.02z"></path><path fill="#33A851" d="M382.131,188.97L318.981,256L102.671,26.41c11.87-1.71,26.04,1.89,41.23,11.52L382.131,188.97z"></path></svg>