<svg width="400" height="400" viewBox="0 0 400 400" fill="none" xmlns="http://www.w3.org/2000/svg">
<g clip-path="url(#clip0_1_2)">
<g clip-path="url(#clip1_1_2)">
<path d="M200 400C310.457 400 400 310.457 400 200C400 89.5431 310.457 0 200 0C89.5431 0 0 89.5431 0 200C0 310.457 89.5431 400 200 400Z" fill="url(#paint0_linear_1_2)"/>
<path fill-rule="evenodd" clip-rule="evenodd" d="M90.5314 197.889C148.835 172.487 187.714 155.74 207.167 147.649C262.709 124.547 274.25 120.534 281.773 120.401C283.427 120.372 287.126 120.782 289.523 122.727C291.546 124.368 292.103 126.586 292.369 128.143C292.635 129.7 292.967 133.246 292.703 136.016C289.694 167.641 276.67 244.386 270.044 279.806C267.241 294.794 261.721 299.819 256.376 300.311C244.762 301.38 235.942 292.635 224.693 285.261C207.091 273.723 197.146 266.54 180.06 255.28C160.314 242.268 173.114 235.116 184.368 223.427C187.313 220.369 238.486 173.823 239.476 169.6C239.6 169.072 239.715 167.104 238.546 166.064C237.376 165.025 235.651 165.38 234.405 165.663C232.64 166.064 204.519 184.65 150.044 221.422C142.062 226.903 134.832 229.574 128.355 229.434C121.214 229.28 107.477 225.396 97.2654 222.077C84.7404 218.006 74.7858 215.853 75.6526 208.939C76.1041 205.337 81.0637 201.654 90.5314 197.889Z" fill="white"/>
</g>
</g>
<defs>
<linearGradient id="paint0_linear_1_2" x1="200" y1="0" x2="200" y2="397.033" gradientUnits="userSpaceOnUse">
<stop stop-color="#2AABEE"/>
<stop offset="1" stop-color="#229ED9"/>
</linearGradient>
<clipPath id="clip0_1_2">
<rect width="400" height="400" fill="white"/>
</clipPath>
<clipPath id="clip1_1_2">
<rect width="400" height="400" fill="white"/>
</clipPath>
</defs>
</svg>
